<?xml version="1.0" standalone="no"?>
<!DOCTYPE svg PUBLIC "-//W3C//DTD SVG 20010904//EN"
 "http://www.w3.org/TR/2001/REC-SVG-20010904/DTD/svg10.dtd">
<svg version="1.0" xmlns="http://www.w3.org/2000/svg"
 width="500.000000pt" height="500.000000pt" viewBox="0 0 500.000000 500.000000"
 preserveAspectRatio="xMidYMid meet">

<g transform="translate(0.000000,500.000000) scale(0.100000,-0.100000)"
fill="#000000" stroke="none">
<path d="M0 2500 l0 -2500 2500 0 2500 0 0 2500 0 2500 -2500 0 -2500 0 0
-2500z m2470 611 c25 -13 70 -43 102 -67 31 -24 60 -44 66 -44 5 0 17 10 28
21 10 12 46 40 79 63 l60 41 160 0 c123 0 173 -4 216 -17 63 -20 139 -71 146
-99 3 -10 10 -19 17 -19 6 0 33 -66 60 -146 l49 -146 -5 -201 c-3 -111 -3
-213 1 -227 4 -17 21 -32 51 -46 25 -12 50 -27 57 -33 7 -7 11 -60 11 -166 0
-142 -1 -156 -18 -165 -12 -7 -133 -9 -321 -8 l-303 3 -10 30 c-6 18 -11 172
-11 400 -1 322 -3 375 -17 408 -15 33 -21 37 -53 37 -27 0 -44 -8 -65 -28 -42
-42 -54 -99 -41 -193 6 -43 8 -122 4 -175 -7 -106 -3 -114 53 -114 17 0 45 -5
62 -11 29 -10 31 -13 38 -87 7 -78 1 -223 -11 -254 -7 -17 -32 -18 -326 -18
l-319 0 -11 28 c-7 17 -11 159 -13 382 -1 340 -2 358 -24 423 -13 37 -28 67
-34 67 -22 0 -79 -43 -93 -70 -8 -15 -20 -60 -26 -99 -11 -62 -10 -76 5 -110
16 -33 16 -48 6 -113 -17 -112 1 -143 86 -155 27 -3 52 -11 56 -17 12 -17 9
-269 -3 -303 -8 -25 -17 -31 -47 -35 -61 -7 -655 -2 -680 6 -13 4 -27 19 -33
33 -12 32 -11 206 2 263 11 50 22 60 61 60 47 0 52 24 53 262 0 204 -1 218
-21 245 -12 15 -33 29 -47 31 -14 2 -30 9 -35 15 -6 7 -12 79 -13 161 -4 175
-7 170 106 180 90 8 353 -3 378 -16 10 -5 22 -20 27 -34 11 -28 37 -41 55 -28
7 5 31 24 55 42 24 17 55 32 70 32 14 0 31 5 37 11 20 20 77 28 178 25 80 -2
109 -7 145 -25z"/>
<path d="M3025 2880 c-3 -5 1 -10 10 -10 9 0 13 5 10 10 -3 6 -8 10 -10 10 -2
0 -7 -4 -10 -10z"/>
<path d="M3117 2833 c-4 -3 -7 -11 -7 -17 0 -6 5 -5 12 2 6 6 9 14 7 17 -3 3
-9 2 -12 -2z"/>
<path d="M1772 2795 c0 -16 2 -22 5 -12 2 9 2 23 0 30 -3 6 -5 -1 -5 -18z"/>
<path d="M2375 2800 c3 -5 8 -10 11 -10 2 0 4 5 4 10 0 6 -5 10 -11 10 -5 0
-7 -4 -4 -10z"/>
<path d="M2430 2801 c0 -6 5 -13 10 -16 6 -3 10 1 10 9 0 9 -4 16 -10 16 -5 0
-10 -4 -10 -9z"/>
<path d="M1932 2780 c0 -14 2 -19 5 -12 2 6 2 18 0 25 -3 6 -5 1 -5 -13z"/>
<path d="M3226 2761 c-4 -7 -5 -15 -2 -18 9 -9 19 4 14 18 -4 11 -6 11 -12 0z"/>
<path d="M2320 2749 c0 -5 5 -7 10 -4 6 3 10 8 10 11 0 2 -4 4 -10 4 -5 0 -10
-5 -10 -11z"/>
<path d="M1725 2731 c-3 -5 -1 -12 5 -16 5 -3 10 1 10 9 0 18 -6 21 -15 7z"/>
<path d="M2522 2700 c0 -14 2 -19 5 -12 2 6 2 18 0 25 -3 6 -5 1 -5 -13z"/>
<path d="M3177 2700 c3 -11 9 -20 15 -20 5 0 4 9 -2 20 -6 11 -12 20 -14 20
-2 0 -2 -9 1 -20z"/>
<path d="M1834 2677 c-16 -17 -20 -24 -8 -14 11 9 26 17 32 17 15 0 25 17 14
24 -5 3 -22 -9 -38 -27z"/>
<path d="M2457 2703 c-4 -3 -7 -13 -7 -22 1 -13 3 -13 11 2 11 19 8 33 -4 20z"/>
<path d="M2593 2675 c-9 -20 -8 -25 3 -25 8 0 14 10 14 25 0 31 -2 31 -17 0z"/>
<path d="M2406 2655 c3 -16 11 -34 17 -40 6 -7 7 0 3 20 -4 17 -12 35 -17 40
-7 7 -8 0 -3 -20z"/>
<path d="M1705 2610 c3 -5 8 -10 11 -10 2 0 4 5 4 10 0 6 -5 10 -11 10 -5 0
-7 -4 -4 -10z"/>
<path d="M1702 2560 c7 -11 16 -16 21 -11 12 12 0 31 -19 31 -12 0 -12 -3 -2
-20z"/>
<path d="M3148 2573 c7 -3 16 -2 19 1 4 3 -2 6 -13 5 -11 0 -14 -3 -6 -6z"/>
<path d="M1820 2560 c20 -13 33 -13 25 0 -3 6 -14 10 -23 10 -15 0 -15 -2 -2
-10z"/>
<path d="M1721 2514 c0 -11 3 -14 6 -6 3 7 2 16 -1 19 -3 4 -6 -2 -5 -13z"/>
<path d="M2470 2481 c0 -5 5 -13 10 -16 6 -3 10 -2 10 4 0 5 -4 13 -10 16 -5
3 -10 2 -10 -4z"/>
<path d="M3130 2455 c0 -8 5 -15 10 -15 6 0 10 7 10 15 0 8 -4 15 -10 15 -5 0
-10 -7 -10 -15z"/>
<path d="M1740 2450 c0 -5 7 -10 15 -10 8 0 15 5 15 10 0 6 -7 10 -15 10 -8 0
-15 -4 -15 -10z"/>
<path d="M2370 2439 c0 -5 5 -7 10 -4 6 3 10 8 10 11 0 2 -4 4 -10 4 -5 0 -10
-5 -10 -11z"/>
<path d="M2472 2400 c0 -14 2 -19 5 -12 2 6 2 18 0 25 -3 6 -5 1 -5 -13z"/>
<path d="M2507 2400 c3 -11 7 -20 9 -20 2 0 4 9 4 20 0 11 -4 20 -9 20 -5 0
-7 -9 -4 -20z"/>
<path d="M3030 2380 c0 -14 5 -32 10 -40 8 -12 10 -10 10 10 0 14 -5 32 -10
40 -8 12 -10 10 -10 -10z"/>
<path d="M2560 2379 c0 -5 5 -7 10 -4 6 3 10 8 10 11 0 2 -4 4 -10 4 -5 0 -10
-5 -10 -11z"/>
<path d="M2544 2344 c3 -9 6 -28 7 -42 l1 -27 8 28 c9 31 4 57 -12 57 -6 0 -7
-7 -4 -16z"/>
<path d="M2420 2331 c0 -5 5 -13 10 -16 6 -3 10 -2 10 4 0 5 -4 13 -10 16 -5
3 -10 2 -10 -4z"/>
<path d="M3145 2307 c-4 -10 -5 -21 -1 -24 10 -10 18 4 13 24 -4 17 -4 17 -12
0z"/>
<path d="M1680 2239 c0 -5 5 -7 10 -4 6 3 10 8 10 11 0 2 -4 4 -10 4 -5 0 -10
-5 -10 -11z"/>
<path d="M3055 2240 c-3 -5 -2 -10 4 -10 5 0 13 5 16 10 3 6 2 10 -4 10 -5 0
-13 -4 -16 -10z"/>
<path d="M3195 2230 c4 -6 1 -18 -7 -27 -11 -14 -11 -16 1 -12 21 7 34 49 15
49 -8 0 -12 -5 -9 -10z"/>
<path d="M1813 2223 c9 -2 23 -2 30 0 6 3 -1 5 -18 5 -16 0 -22 -2 -12 -5z"/>
<path d="M3265 2210 c-3 -5 -1 -10 4 -10 6 0 11 5 11 10 0 6 -2 10 -4 10 -3 0
-8 -4 -11 -10z"/>
<path d="M1705 2200 c-3 -5 1 -10 10 -10 9 0 13 5 10 10 -3 6 -8 10 -10 10 -2
0 -7 -4 -10 -10z"/>
<path d="M3094 2194 c3 -9 6 -18 6 -20 0 -3 4 -3 10 1 11 7 2 35 -12 35 -6 0
-7 -7 -4 -16z"/>
<path d="M1796 2185 c4 -8 11 -15 16 -15 6 0 5 6 -2 15 -7 8 -14 15 -16 15 -2
0 -1 -7 2 -15z"/>
<path d="M2490 2171 c0 -6 5 -13 10 -16 6 -3 10 1 10 9 0 9 -4 16 -10 16 -5 0
-10 -4 -10 -9z"/>
<path d="M1705 2110 c3 -5 8 -10 11 -10 2 0 4 5 4 10 0 6 -5 10 -11 10 -5 0
-7 -4 -4 -10z"/>
<path d="M2590 2110 c0 -5 7 -10 16 -10 8 0 12 5 9 10 -3 6 -10 10 -16 10 -5
0 -9 -4 -9 -10z"/>
<path d="M3176 2103 c-6 -14 -5 -15 5 -6 7 7 10 15 7 18 -3 3 -9 -2 -12 -12z"/>
<path d="M1755 2070 c-3 -5 -1 -10 4 -10 6 0 11 5 11 10 0 6 -2 10 -4 10 -3 0
-8 -4 -11 -10z"/>
</g>
</svg>
